<svg width="26" height="25" viewBox="0 0 26 25" fill="none" xmlns="http://www.w3.org/2000/svg">
<path d="M20.5545 12.5C20.5545 16.8147 17.0567 20.3125 12.7419 20.3125C8.4272 20.3125 4.92941 16.8147 4.92941 12.5C4.92941 8.18523 8.4272 4.68745 12.7419 4.68745C17.0567 4.68745 20.5545 8.18523 20.5545 12.5Z" fill="#FFECA9"/>
<path d="M11.9606 0H13.5231V3.125H11.9606V0Z" fill="#FFECA9"/>
<path d="M11.9606 21.875H13.5231V25H11.9606V21.875Z" fill="#FFECA9"/>
<path d="M22.1169 13.2813V11.7188H25.2419V13.2813H22.1169Z" fill="#FFECA9"/>
<path d="M0.241943 13.2813V11.7188H3.36696V13.2813H0.241943Z" fill="#FFECA9"/>
<path d="M5.81535 2.06529L7.16852 1.28404L8.73103 3.99037L7.37786 4.77162L5.81535 2.06529Z" fill="#FFECA9"/>
<path d="M16.7528 21.0097L18.106 20.2284L19.6685 22.9348L18.3154 23.716L16.7528 21.0097Z" fill="#FFECA9"/>
<path d="M21.2516 8.48908L20.4703 7.13592L23.1767 5.57342L23.9579 6.92658L21.2516 8.48908Z" fill="#FFECA9"/>
<path d="M2.30713 19.4266L1.52587 18.0735L4.23221 16.511L5.01347 17.8641L2.30713 19.4266Z" fill="#FFECA9"/>
<path d="M18.3153 1.28409L19.6685 2.06534L18.1059 4.77167L16.7528 3.99042L18.3153 1.28409Z" fill="#FFECA9"/>
<path d="M7.37761 20.2284L8.73078 21.0096L7.16827 23.716L5.8151 22.9347L7.37761 20.2284Z" fill="#FFECA9"/>
<path d="M20.4703 17.8641L21.2515 16.5109L23.9579 18.0734L23.1766 19.4266L20.4703 17.8641Z" fill="#FFECA9"/>
<path d="M1.52583 6.92661L2.30708 5.57344L5.01343 7.13595L4.23217 8.48911L1.52583 6.92661Z" fill="#FFECA9"/>
</svg>
